<svg width="1440" height="1024" viewBox="0 0 1440 1024" fill="none" xmlns="http://www.w3.org/2000/svg">
<rect width="1440" height="1024" fill="url(#paint0_linear_1_150)"/>
<rect width="1440" height="1024" fill="white" fill-opacity="0.2"/>
<g filter="url(#filter0_dd_1_150)">
<path d="M148.507 379.818C161.883 375.622 174.71 387.652 171.38 401.269L151.099 484.188C147.826 497.569 131.349 502.465 121.301 493.041L60.132 435.673C50.0841 426.25 53.9138 409.492 67.0577 405.369L148.507 379.818Z" fill="url(#paint1_linear_1_150)"/>
<path d="M170.894 401.15L150.613 484.07C147.432 497.079 131.412 501.838 121.643 492.676L60.4741 435.309C50.7053 426.147 54.4285 409.855 67.2073 405.846L148.657 380.295C161.662 376.215 174.132 387.911 170.894 401.15Z" stroke="url(#paint2_linear_1_150)"/>
</g>
<g filter="url(#filter1_dd_1_150)">
<path d="M1254.56 714.758C1251.85 706.629 1259.07 698.665 1267.43 700.557L1374.48 724.796C1382.69 726.656 1385.85 736.672 1380.2 742.911L1307.8 822.818C1302.14 829.057 1291.87 826.893 1289.21 818.905L1254.56 714.758Z" fill="url(#paint3_linear_1_150)"/>
<path d="M1267.31 701.045L1374.36 725.284C1382.2 727.059 1385.22 736.62 1379.83 742.575L1307.43 822.483C1302.03 828.438 1292.22 826.372 1289.68 818.747L1255.03 714.6C1252.45 706.84 1259.34 699.239 1267.31 701.045Z" stroke="url(#paint4_linear_1_150)"/>
</g>
<g filter="url(#filter2_dd_1_150)">
<circle cx="1350" cy="337" r="50" fill="url(#paint5_linear_1_150)"/>
<circle cx="1350" cy="337" r="49.5" stroke="url(#paint6_linear_1_150)"/>
</g>
<g filter="url(#filter3_dd_1_150)">
<path d="M113.711 828.333C127.381 832.205 136.737 837.748 141.778 844.963C146.845 852.085 148.083 860.218 145.493 869.362C143.845 875.182 140.922 880.041 136.725 883.941C132.527 887.84 127.173 890.365 120.661 891.514C114.149 892.663 106.691 892.047 98.2856 889.666C91.3581 887.704 84.9362 884.838 79.0199 881.067C73.1297 877.204 68.4649 872.889 65.0254 868.124L76.609 856.288C79.3742 860.264 83.0021 863.836 87.4929 867.004C92.1021 870.105 97.0854 872.415 102.443 873.932C108.816 875.737 114.17 875.856 118.505 874.29C122.958 872.658 125.839 869.533 127.147 864.915C128.56 859.927 127.633 855.624 124.368 852.005C121.221 848.32 114.891 845.13 105.377 842.435L81.9618 835.804L101.9 784.429L158.845 800.557L154.567 815.659L112.864 803.847L104.428 825.704L113.711 828.333Z" fill="url(#paint7_linear_1_150)"/>
</g>
<defs>
<filter id="filter0_dd_1_150" x="-21.5628" y="302.969" width="261.476" height="262.955" filterUnits="userSpaceOnUse" color-interpolation-filters="sRGB">
<feFlood flood-opacity="0" result="BackgroundImageFix"/>
<feColorMatrix in="SourceAlpha" type="matrix" values="0 0 0 0 0 0 0 0 0 0 0 0 0 0 0 0 0 0 127 0" result="hardAlpha"/>
<feOffset dx="-4" dy="-4"/>
<feGaussianBlur stdDeviation="36"/>
<feComposite in2="hardAlpha" operator="out"/>
<feColorMatrix type="matrix" values="0 0 0 0 0.624033 0 0 0 0 0.428889 0 0 0 0 0.804167 0 0 0 1 0"/>
<feBlend mode="normal" in2="BackgroundImageFix" result="effect1_dropShadow_1_150"/>
<feColorMatrix in="SourceAlpha" type="matrix" values="0 0 0 0 0 0 0 0 0 0 0 0 0 0 0 0 0 0 127 0" result="hardAlpha"/>
<feOffset dx="4" dy="4"/>
<feGaussianBlur stdDeviation="10"/>
<feComposite in2="hardAlpha" operator="out"/>
<feColorMatrix type="matrix" values="0 0 0 0 0.538262 0 0 0 0 0.306806 0 0 0 0 0.783333 0 0 0 1 0"/>
<feBlend mode="normal" in2="effect1_dropShadow_1_150" result="effect2_dropShadow_1_150"/>
<feBlend mode="normal" in="SourceGraphic" in2="effect2_dropShadow_1_150" result="shape"/>
</filter>
<filter id="filter1_dd_1_150" x="1216.98" y="663.275" width="195.074" height="192.162" filterUnits="userSpaceOnUse" color-interpolation-filters="sRGB">
<feFlood flood-opacity="0" result="BackgroundImageFix"/>
<feColorMatrix in="SourceAlpha" type="matrix" values="0 0 0 0 0 0 0 0 0 0 0 0 0 0 0 0 0 0 127 0" result="hardAlpha"/>
<feOffset dx="-4" dy="-4"/>
<feGaussianBlur stdDeviation="16.5"/>
<feComposite in2="hardAlpha" operator="out"/>
<feColorMatrix type="matrix" values="0 0 0 0 0.427451 0 0 0 0 0.309804 0 0 0 0 0.705882 0 0 0 1 0"/>
<feBlend mode="normal" in2="BackgroundImageFix" result="effect1_dropShadow_1_150"/>
<feColorMatrix in="SourceAlpha" type="matrix" values="0 0 0 0 0 0 0 0 0 0 0 0 0 0 0 0 0 0 127 0" result="hardAlpha"/>
<feOffset dy="4"/>
<feGaussianBlur stdDeviation="2"/>
<feComposite in2="hardAlpha" operator="out"/>
<feColorMatrix type="matrix" values="0 0 0 0 0.427451 0 0 0 0 0.301961 0 0 0 0 0.701961 0 0 0 1 0"/>
<feBlend mode="normal" in2="effect1_dropShadow_1_150" result="effect2_dropShadow_1_150"/>
<feBlend mode="normal" in="SourceGraphic" in2="effect2_dropShadow_1_150" result="shape"/>
</filter>
<filter id="filter2_dd_1_150" x="1261" y="248" width="170" height="170" filterUnits="userSpaceOnUse" color-interpolation-filters="sRGB">
<feFlood flood-opacity="0" result="BackgroundImageFix"/>
<feColorMatrix in="SourceAlpha" type="matrix" values="0 0 0 0 0 0 0 0 0 0 0 0 0 0 0 0 0 0 127 0" result="hardAlpha"/>
<feOffset dx="-4" dy="-4"/>
<feGaussianBlur stdDeviation="17.5"/>
<feComposite in2="hardAlpha" operator="out"/>
<feColorMatrix type="matrix" values="0 0 0 0 0.641456 0 0 0 0 0.391198 0 0 0 0 0.845833 0 0 0 1 0"/>
<feBlend mode="normal" in2="BackgroundImageFix" result="effect1_dropShadow_1_150"/>
<feColorMatrix in="SourceAlpha" type="matrix" values="0 0 0 0 0 0 0 0 0 0 0 0 0 0 0 0 0 0 127 0" result="hardAlpha"/>
<feOffset dy="4"/>
<feGaussianBlur stdDeviation="3.5"/>
<feComposite in2="hardAlpha" operator="out"/>
<feColorMatrix type="matrix" values="0 0 0 0 0.555731 0 0 0 0 0.30191 0 0 0 0 0.770833 0 0 0 1 0"/>
<feBlend mode="normal" in2="effect1_dropShadow_1_150" result="effect2_dropShadow_1_150"/>
<feBlend mode="normal" in="SourceGraphic" in2="effect2_dropShadow_1_150" result="shape"/>
</filter>
<filter id="filter3_dd_1_150" x="39.8469" y="758.975" width="138.678" height="155.561" filterUnits="userSpaceOnUse" color-interpolation-filters="sRGB">
<feFlood flood-opacity="0" result="BackgroundImageFix"/>
<feColorMatrix in="SourceAlpha" type="matrix" values="0 0 0 0 0 0 0 0 0 0 0 0 0 0 0 0 0 0 127 0" result="hardAlpha"/>
<feOffset dx="-5" dy="-5"/>
<feGaussianBlur stdDeviation="8.5"/>
<feComposite in2="hardAlpha" operator="out"/>
<feColorMatrix type="matrix" values="0 0 0 0 0.573567 0 0 0 0 0.396667 0 0 0 0 0.8 0 0 0 1 0"/>
<feBlend mode="normal" in2="BackgroundImageFix" result="effect1_dropShadow_1_150"/>
<feColorMatrix in="SourceAlpha" type="matrix" values="0 0 0 0 0 0 0 0 0 0 0 0 0 0 0 0 0 0 127 0" result="hardAlpha"/>
<feOffset dx="5" dy="5"/>
<feGaussianBlur stdDeviation="4.5"/>
<feComposite in2="hardAlpha" operator="out"/>
<feColorMatrix type="matrix" values="0 0 0 0 0.525278 0 0 0 0 0.305 0 0 0 0 0.7625 0 0 0 1 0"/>
<feBlend mode="normal" in2="effect1_dropShadow_1_150" result="effect2_dropShadow_1_150"/>
<feBlend mode="normal" in="SourceGraphic" in2="effect2_dropShadow_1_150" result="shape"/>
</filter>
<linearGradient id="paint0_linear_1_150" x1="5.50001" y1="6.99998" x2="1440" y2="1024" gradientUnits="userSpaceOnUse">
<stop stop-color="#6D2996"/>
<stop offset="0.375" stop-color="#7839C9"/>
<stop offset="0.71875" stop-color="#8134BD"/>
<stop offset="1" stop-color="#0C1183"/>
</linearGradient>
<linearGradient id="paint1_linear_1_150" x1="157" y1="429" x2="57.5001" y2="394" gradientUnits="userSpaceOnUse">
<stop stop-color="#9360C8"/>
<stop offset="1" stop-color="#915DC8"/>
</linearGradient>
<linearGradient id="paint2_linear_1_150" x1="210" y1="440.5" x2="38.4778" y2="389.052" gradientUnits="userSpaceOnUse">
<stop stop-color="#9764CB"/>
<stop offset="1" stop-color="#905BBC"/>
</linearGradient>
<linearGradient id="paint3_linear_1_150" x1="1248.4" y1="696.249" x2="1371" y2="874" gradientUnits="userSpaceOnUse">
<stop stop-color="#8055BD"/>
<stop offset="1" stop-color="#5548A8"/>
</linearGradient>
<linearGradient id="paint4_linear_1_150" x1="1329.02" y1="619.789" x2="1266.56" y2="835.407" gradientUnits="userSpaceOnUse">
<stop stop-color="#7A53BA"/>
<stop offset="1" stop-color="#624CAE"/>
</linearGradient>
<linearGradient id="paint5_linear_1_150" x1="1350" y1="287" x2="1321.88" y2="409.505" gradientUnits="userSpaceOnUse">
<stop stop-color="#995DCA"/>
<stop offset="1" stop-color="#9059C5"/>
</linearGradient>
<linearGradient id="paint6_linear_1_150" x1="1415.95" y1="291.885" x2="1296.98" y2="351.354" gradientUnits="userSpaceOnUse">
<stop stop-color="#935AC6"/>
<stop offset="1" stop-color="#935AC6"/>
</linearGradient>
<linearGradient id="paint7_linear_1_150" x1="133.758" y1="774.536" x2="97.2421" y2="903.464" gradientUnits="userSpaceOnUse">
<stop stop-color="#915DCB"/>
<stop offset="1" stop-color="#915FCE"/>
</linearGradient>
</defs>
</svg>
