<svg width="50" height="38" viewBox="0 0 50 38" fill="none" xmlns="http://www.w3.org/2000/svg">
<path d="M49.308 20.681L32.6405 37.3032C31.1523 38.7873 28.5728 37.7484 28.5728 35.6212V26.1228H15.0801C13.7606 26.1228 12.699 25.0641 12.699 23.7482V14.2497C12.699 12.9338 13.7606 11.8751 15.0801 11.8751H28.5728V2.37671C28.5728 0.259353 31.1424 -0.789431 32.6405 0.694698L49.308 17.3169C50.2307 18.247 50.2307 19.7509 49.308 20.681ZM19.0486 36.8085V32.8508C19.0486 32.1978 18.5128 31.6635 17.858 31.6635H9.52428C7.76824 31.6635 6.34952 30.2486 6.34952 28.4974V9.50053C6.34952 7.74926 7.76824 6.33439 9.52428 6.33439H17.858C18.5128 6.33439 19.0486 5.8001 19.0486 5.14708V1.18941C19.0486 0.536391 18.5128 0.00210435 17.858 0.00210435H9.52428C4.26608 0.00210435 0 4.25661 0 9.50053V28.4974C0 33.7413 4.26608 37.9958 9.52428 37.9958H17.858C18.5128 37.9958 19.0486 37.4615 19.0486 36.8085Z" fill="black"/>
</svg>
